<svg width="171" height="41" viewBox="0 0 171 41" fill="none" xmlns="http://www.w3.org/2000/svg">
<g clip-path="url(#clip0_27702_61558)">
<path d="M69.011 34.3143C68.6291 33.8332 67.9799 33.543 67.2009 33.543C65.7422 33.543 64.7417 34.6046 64.7417 36.132C64.7417 37.6595 65.7422 38.7211 67.2009 38.7211C67.9647 38.7211 68.6291 38.4309 69.011 37.9497V38.6142H70.0267V33.6575H69.0262V34.322H69.0186L69.011 34.3143ZM67.3919 37.69C66.4983 37.69 65.8797 37.0485 65.8797 36.1244C65.8797 35.2003 66.4983 34.5587 67.3919 34.5587C68.2854 34.5587 68.904 35.2003 68.904 36.1244C68.904 37.0485 68.2854 37.69 67.3919 37.69Z" fill="#0E0478"/>
<path d="M74.2121 33.535C73.4483 33.535 72.7839 33.8252 72.402 34.3064V33.6419H71.3862V40.8897H72.5089V38.0563C72.8984 38.4687 73.5094 38.7055 74.2044 38.7055C75.6631 38.7055 76.6636 37.6439 76.6636 36.1164C76.6636 34.5889 75.6631 33.5273 74.2044 33.5273L74.2121 33.535ZM74.0288 37.6897C73.1428 37.6897 72.5166 37.0482 72.5166 36.124C72.5166 35.1999 73.1505 34.5584 74.0288 34.5584C74.907 34.5584 75.5409 35.1999 75.5409 36.124C75.5409 37.0482 74.9223 37.6897 74.0288 37.6897Z" fill="#0E0478"/>
<path d="M79.9631 33.5508C78.428 33.5508 77.397 34.5971 77.397 36.1322C77.397 37.6673 78.4509 38.7518 80.0853 38.7518C80.9407 38.7518 81.7273 38.4234 82.2238 37.8888L81.544 37.2243C81.2462 37.5375 80.681 37.736 80.1159 37.736C79.2452 37.736 78.6419 37.2778 78.5502 36.5523H82.514C82.6744 34.6964 81.7121 33.5508 79.9631 33.5508ZM78.5578 35.674C78.6953 34.9408 79.207 34.5207 79.9937 34.5207C80.8185 34.5207 81.3607 34.9713 81.4371 35.674H78.5578Z" fill="#0E0478"/>
<path d="M87.7532 33.6504H86.4396L85.737 34.6814L85.3551 35.2848L84.9809 34.6814L84.2782 33.6504H82.9417L84.6066 36.0485L82.8271 38.607H84.1331L84.8052 37.6447L85.3475 36.8199L85.8821 37.6447L86.5236 38.607H87.8602L86.0807 36.0485L87.7456 33.6504H87.7532Z" fill="#0E0478"/>
<path d="M91.5028 31.5801H88.8145V38.6064H91.5028C93.6183 38.6064 95.0465 37.2012 95.0465 35.0933C95.0465 32.9854 93.6183 31.5801 91.5028 31.5801ZM91.5028 37.5219H89.9906V32.6646H91.5028C92.9004 32.6646 93.8627 33.6498 93.8627 35.0933C93.8627 36.5367 92.9081 37.5219 91.5028 37.5219Z" fill="#0E0478"/>
<path d="M96.6658 31.5195C96.2534 31.5195 95.9556 31.8097 95.9556 32.2222C95.9556 32.6346 96.2534 32.9019 96.6658 32.9019C97.0935 32.9019 97.399 32.6117 97.399 32.2222C97.399 31.8097 97.1012 31.5195 96.6658 31.5195Z" fill="#0E0478"/>
<path d="M97.2233 33.6504H96.1006V38.607H97.2233V33.6504Z" fill="#0E0478"/>
<path d="M102.547 34.3143C102.165 33.8332 101.516 33.543 100.737 33.543C99.2778 33.543 98.2773 34.6046 98.2773 36.1244C98.2773 37.6442 99.2778 38.7134 100.737 38.7134C101.447 38.7134 102.05 38.4538 102.432 38.0108V38.5836C102.432 39.6376 101.729 40.05 100.836 40.05C100.332 40.05 99.7055 39.8896 99.0793 39.4848L98.5905 40.3707C99.3466 40.8824 100.164 41.0734 100.928 41.0734C102.302 41.0734 103.555 40.3784 103.555 38.6142V33.6575H102.554V34.322H102.547V34.3143ZM100.92 37.69C100.026 37.69 99.4077 37.0485 99.4077 36.1244C99.4077 35.2003 100.026 34.5587 100.92 34.5587C101.813 34.5587 102.432 35.2003 102.432 36.1244C102.432 37.0485 101.813 37.69 100.92 37.69Z" fill="#0E0478"/>
<path d="M105.487 31.5195C105.075 31.5195 104.777 31.8097 104.777 32.2222C104.777 32.6346 105.075 32.9019 105.487 32.9019C105.915 32.9019 106.22 32.6117 106.22 32.2222C106.22 31.8097 105.922 31.5195 105.487 31.5195Z" fill="#0E0478"/>
<path d="M106.045 33.6504H104.922V38.607H106.045V33.6504Z" fill="#0E0478"/>
<path d="M109.772 37.6835C109.313 37.6835 109.077 37.4009 109.077 36.8969V34.598H110.505V33.6434H109.077V32.2305L107.962 32.3527V33.651H107.03V34.6057H107.962V36.9045C107.962 38.0883 108.565 38.684 109.588 38.684C110.001 38.684 110.321 38.6153 110.703 38.4396L110.39 37.5384C110.199 37.6301 109.97 37.6912 109.772 37.6912V37.6835Z" fill="#0E0478"/>
<path d="M115.476 34.3143C115.094 33.8332 114.445 33.543 113.666 33.543C112.208 33.543 111.207 34.6046 111.207 36.132C111.207 37.6595 112.208 38.7211 113.666 38.7211C114.43 38.7211 115.094 38.4309 115.476 37.9497V38.6142H116.492V33.6575H115.492V34.322H115.484L115.476 34.3143ZM113.857 37.69C112.964 37.69 112.345 37.0485 112.345 36.1244C112.345 35.2003 112.964 34.5587 113.857 34.5587C114.751 34.5587 115.369 35.2003 115.369 36.1244C115.369 37.0485 114.751 37.69 113.857 37.69Z" fill="#0E0478"/>
<path d="M118.982 31.5801H117.859V38.6064H118.982V31.5801Z" fill="#0E0478"/>
<path d="M56.9822 36.0938C56.9822 35.5592 56.8677 35.0857 56.6385 34.6809C56.4094 34.2761 56.0887 33.9554 55.6915 33.7262C55.2944 33.4971 54.8361 33.3826 54.3321 33.3826C53.8586 33.3826 53.4309 33.4971 53.049 33.711C52.8428 33.8255 52.6595 33.9706 52.5067 34.1463V31.3281H51.6514V38.7669H52.4915V38.0184C52.6519 38.2017 52.8428 38.3545 53.0566 38.4767C53.4385 38.6982 53.8662 38.8051 54.3397 38.8051C54.8438 38.8051 55.2944 38.6905 55.6992 38.4614C56.0963 38.2323 56.4171 37.9115 56.6462 37.4991C56.8753 37.0943 56.9899 36.6208 56.9899 36.0938H56.9822ZM53.385 34.4289C53.6524 34.2685 53.9655 34.1921 54.3092 34.1921C54.6528 34.1921 54.966 34.2685 55.2409 34.4289C55.5159 34.5816 55.7297 34.8108 55.8901 35.0857C56.0505 35.3683 56.1268 35.7043 56.1268 36.0938C56.1268 36.4833 56.0505 36.8117 55.8901 37.0943C55.7297 37.3769 55.5159 37.606 55.2409 37.7588C54.691 38.0719 53.9197 38.0719 53.3774 37.7588C53.1101 37.606 52.8963 37.3769 52.7359 37.0943C52.5755 36.8041 52.4991 36.4681 52.4991 36.0938C52.4991 35.7196 52.5755 35.3683 52.7359 35.0857C52.8963 34.8031 53.1101 34.5816 53.3774 34.4289H53.385Z" fill="#0E0478"/>
<path d="M61.5034 33.4199L59.6399 37.5899L57.7688 33.4199H56.8447L59.1664 38.5599L58.9297 39.0792C58.7922 39.3847 58.6471 39.5909 58.502 39.6978C58.2347 39.8887 57.8452 39.8887 57.5779 39.7742C57.4557 39.7207 57.3411 39.6367 57.2265 39.5222L57.0585 39.3465L56.6079 40.0339L56.7148 40.1408C56.8752 40.3088 57.0661 40.431 57.2953 40.5226C57.5167 40.6067 57.7535 40.6525 58.0055 40.6525C58.2576 40.6525 58.4791 40.6067 58.6853 40.5226C58.8915 40.4386 59.09 40.2935 59.2657 40.095C59.4337 39.904 59.5941 39.6444 59.7316 39.3312L62.4046 33.4199H61.5034Z" fill="#0E0478"/>
<path d="M45.1903 0C45.2743 6.34663 45.2056 12.7085 45.2438 19.0628C45.259 19.8036 45.3736 20.575 45.9922 21.0638C46.5879 21.5144 47.5502 21.3845 48.2758 21.4151V24.4166H47.3287C46.1679 24.3555 44.8695 24.3555 43.9301 23.5765C42.67 22.6065 42.1735 21.0561 42.1888 19.5058C42.2117 13.457 42.1888 1.00813 42.1888 1.00813L45.1979 0H45.1903Z" fill="#0E0478"/>
<path d="M84.9884 15.833L86.7985 13.5189L84.3392 10.3418H80.7573L84.9884 15.833Z" fill="#0E0478"/>
<path d="M56.356 20.4918C56.356 20.4918 59.2658 13.7251 60.7245 10.3418H64.2224C62 14.9395 57.7765 24.4098 57.7765 24.4098H54.7292C54.7292 24.4098 50.6661 14.9471 48.543 10.3418H52.0638L56.356 20.4918Z" fill="#0E0478"/>
<path d="M76.4194 11.4022C77.8094 12.334 78.6189 13.6399 79.3063 15.1292C78.1148 15.87 77.0914 16.4658 75.9077 17.1531C74.4107 18.0238 72.8833 18.8181 71.3329 19.5742L71.0503 19.1006C70.699 18.4667 70.6608 18.3675 70.0956 17.3211C71.8828 16.3512 73.7234 15.3813 75.4036 14.2357C74.8919 13.8232 74.426 13.449 73.7921 13.2122C71.7071 12.4485 69.2555 13.5712 68.446 15.6256C68.1558 16.313 68.1863 17.008 68.1939 17.7488C68.2703 19.2916 69.3701 20.7732 70.8059 21.2773C72.7611 22.1174 75.0217 21.3918 76.3124 19.7345C77.1144 20.2386 77.9316 20.7579 78.7564 21.2696C77.7406 22.5833 76.3201 23.6449 74.7315 24.1489C73.5401 24.5613 72.2035 24.5537 70.9739 24.3628C68.7591 23.9962 66.8192 22.4916 65.8416 20.4754C65.1772 19.1159 65.0855 17.6801 65.2307 16.1908C65.5438 14.7474 66.1013 13.4108 67.1553 12.3492C69.5152 9.81363 73.6317 9.37067 76.4499 11.4098H76.4346L76.4194 11.4022Z" fill="#0E0478"/>
<path d="M8.69129 24.4096H5.71273L0 10.3798C1.09978 10.3416 3.28406 10.334 3.28406 10.334C3.28406 10.334 5.033 14.924 5.96476 17.2152C6.35426 18.3074 6.88888 19.3231 7.19437 20.4382C8.592 17.1007 11.3338 10.3951 11.3338 10.3951H14.1367C14.1367 10.3951 16.0995 15.283 17.1229 17.704C17.4895 18.6205 17.879 19.5293 18.215 20.4611C19.521 17.093 22.1636 10.3645 22.1636 10.3645H25.4018L19.6967 24.4172H16.8403C16.8403 24.4172 15.3281 20.7055 14.6179 18.9031C14.0527 17.5513 12.8078 14.3436 12.8078 14.3436" fill="#0E0478"/>
<path d="M39.6456 16.1912C39.3859 15.3587 39.195 14.5492 38.7215 13.8007C37.7286 12.1663 36.1018 10.9673 34.2154 10.5778C32.5734 10.1424 30.8474 10.5014 29.3428 11.2193C26.685 12.6017 25.2034 15.6948 25.7151 18.6352C26.1046 20.9264 27.7542 23.0343 29.908 23.9126C32.7949 25.1498 36.415 24.2868 38.2938 21.7436C39.5997 20.1397 39.8441 18.1998 39.6379 16.1989L39.6456 16.1912ZM36.6823 17.5201C36.7739 19.6433 34.8875 21.5526 32.7643 21.4457C30.6488 21.5908 28.7242 19.8724 28.6707 17.7416C28.518 15.8017 29.7017 14.0451 31.5882 13.5181C32.5352 13.3119 33.6197 13.3425 34.5056 13.7855C35.9262 14.427 36.7663 15.9774 36.6823 17.5201Z" fill="#0E0478"/>
<path d="M95.1153 10.334H91.5716L80.7495 24.3027H84.4536L87.9363 19.7432L91.4189 24.3027H95.123L89.7539 17.368L95.123 10.334H95.1153Z" fill="#0E0478"/>
<path d="M105.869 24.5385C105.227 24.5385 104.647 24.3934 104.12 24.0955C103.6 23.79 103.18 23.3624 102.867 22.8048C102.562 22.2397 102.417 21.5447 102.417 20.7351C102.417 19.9255 102.569 19.2382 102.867 18.6807C103.173 18.1155 103.585 17.6802 104.105 17.39C104.624 17.0997 105.212 16.947 105.861 16.947C106.571 16.947 107.205 17.1074 107.763 17.4281C108.328 17.7413 108.779 18.1842 109.099 18.7647C109.42 19.3298 109.581 19.9866 109.581 20.7351C109.581 21.4836 109.42 22.1557 109.099 22.7208C108.779 23.286 108.336 23.7366 107.763 24.0574C107.205 24.3781 106.571 24.5385 105.861 24.5385H105.869ZM102.02 27.2268V17.0234H102.982V19.2687L102.883 20.758L103.028 22.2626V27.2268H102.02ZM105.792 23.6449C106.319 23.6449 106.793 23.5304 107.213 23.2936C107.633 23.0492 107.961 22.7055 108.206 22.2702C108.45 21.8272 108.572 21.3155 108.572 20.7351C108.572 20.1547 108.45 19.6506 108.206 19.2153C107.961 18.7799 107.625 18.4363 107.213 18.1919C106.801 17.9475 106.327 17.8253 105.792 17.8253C105.258 17.8253 104.784 17.9475 104.357 18.1919C103.944 18.4363 103.608 18.7799 103.364 19.2153C103.127 19.6506 103.012 20.1547 103.012 20.7351C103.012 21.3155 103.127 21.8196 103.364 22.2702C103.608 22.7055 103.944 23.0492 104.357 23.2936C104.784 23.5304 105.258 23.6449 105.792 23.6449ZM113.055 24.4698V13.9379H114.064V24.4698H113.055ZM122.953 24.4698V22.8201L122.908 22.5528V19.8034C122.908 19.1695 122.724 18.6807 122.365 18.3446C122.014 18.0009 121.487 17.8329 120.792 17.8329C120.311 17.8329 119.853 17.9169 119.417 18.0773C118.982 18.2377 118.615 18.4515 118.31 18.7188L117.859 17.9704C118.241 17.6496 118.692 17.4052 119.219 17.2296C119.746 17.0463 120.303 16.9623 120.891 16.9623C121.854 16.9623 122.602 17.2067 123.122 17.6878C123.648 18.1613 123.916 18.8869 123.916 19.8568V24.485H122.953V24.4698ZM120.387 24.5385C119.83 24.5385 119.341 24.4469 118.929 24.2712C118.524 24.0803 118.211 23.8282 117.989 23.5075C117.768 23.1791 117.661 22.7972 117.661 22.3695C117.661 21.98 117.752 21.6287 117.928 21.3155C118.119 20.9948 118.417 20.7351 118.837 20.5518C119.265 20.3532 119.83 20.254 120.54 20.254H123.106V21.0024H120.563C119.845 21.0024 119.341 21.1322 119.058 21.3843C118.783 21.6363 118.646 21.9571 118.646 22.3313C118.646 22.759 118.814 23.095 119.142 23.3547C119.471 23.6067 119.937 23.7366 120.532 23.7366C121.128 23.7366 121.586 23.6067 121.991 23.3547C122.411 23.0874 122.709 22.7132 122.9 22.2168L123.129 22.9117C122.938 23.4005 122.61 23.7977 122.136 24.0879C121.67 24.3781 121.082 24.5309 120.38 24.5309L120.387 24.5385ZM130.43 24.5385C129.728 24.5385 129.193 24.3476 128.811 23.9733C128.429 23.5915 128.246 23.0569 128.246 22.3695V15.3737H129.254V22.316C129.254 22.7514 129.361 23.0874 129.583 23.3242C129.812 23.5609 130.133 23.6755 130.545 23.6755C130.988 23.6755 131.362 23.5456 131.652 23.2936L132.004 24.0192C131.805 24.2025 131.561 24.3323 131.278 24.4163C131.003 24.5003 130.721 24.5461 130.43 24.5461V24.5385ZM126.91 17.8558V17.0157H131.523V17.8558H126.91ZM135.433 24.4698V16.084C135.433 15.4195 135.624 14.8849 136.013 14.4801C136.403 14.0753 136.96 13.8691 137.686 13.8691C137.968 13.8691 138.243 13.9073 138.511 13.9837C138.778 14.0601 139 14.1746 139.175 14.335L138.831 15.0835C138.686 14.9613 138.526 14.8696 138.335 14.8162C138.144 14.7474 137.946 14.7169 137.724 14.7169C137.296 14.7169 136.976 14.8314 136.747 15.0682C136.517 15.305 136.403 15.6563 136.403 16.1222V17.2601L136.433 17.726V24.4698H135.425H135.433ZM134.096 17.8558V17.0157H138.709V17.8558H134.096ZM144.399 24.5385C143.681 24.5385 143.032 24.3781 142.452 24.0574C141.886 23.7289 141.436 23.2783 141.1 22.7055C140.771 22.1251 140.603 21.4683 140.603 20.7351C140.603 20.0019 140.771 19.3298 141.1 18.7647C141.428 18.1995 141.879 17.7489 142.452 17.4281C143.017 17.1074 143.666 16.947 144.399 16.947C145.132 16.947 145.789 17.1074 146.354 17.4281C146.935 17.7489 147.378 18.1919 147.706 18.7647C148.034 19.3298 148.203 19.9866 148.203 20.7351C148.203 21.4836 148.034 22.1327 147.706 22.7055C147.385 23.2707 146.935 23.7213 146.354 24.0574C145.774 24.3781 145.125 24.5385 144.399 24.5385ZM144.399 23.6449C144.941 23.6449 145.415 23.5304 145.835 23.2936C146.255 23.0492 146.576 22.7055 146.813 22.2702C147.057 21.8272 147.179 21.3155 147.179 20.7351C147.179 20.1547 147.057 19.6353 146.813 19.2C146.576 18.7647 146.247 18.4286 145.835 18.1919C145.415 17.9475 144.949 17.8253 144.414 17.8253C143.88 17.8253 143.414 17.9475 142.994 18.1919C142.574 18.4286 142.245 18.7647 142.001 19.2C141.757 19.6353 141.634 20.147 141.634 20.7351C141.634 21.3232 141.757 21.8196 142.001 22.2702C142.245 22.7055 142.581 23.0492 142.994 23.2936C143.414 23.5304 143.88 23.6449 144.399 23.6449ZM151.678 24.4698V17.0157H152.64V19.0473L152.541 18.6959C152.747 18.1308 153.098 17.6954 153.594 17.4052C154.083 17.0997 154.694 16.9546 155.427 16.9546V17.9322H155.313C155.313 17.9322 155.237 17.9169 155.198 17.9169C154.412 17.9169 153.801 18.1613 153.35 18.6425C152.907 19.116 152.686 19.7957 152.686 20.674V24.4774H151.678V24.4698ZM167.991 16.947C168.594 16.947 169.121 17.0615 169.564 17.2983C170.015 17.5274 170.366 17.8787 170.618 18.3523C170.87 18.8258 171 19.4215 171 20.1394V24.4698H169.992V20.2387C169.992 19.452 169.801 18.864 169.427 18.4668C169.06 18.062 168.533 17.8558 167.853 17.8558C167.342 17.8558 166.899 17.9628 166.517 18.1842C166.15 18.3904 165.86 18.7036 165.654 19.1084C165.455 19.5055 165.356 19.9866 165.356 20.5594V24.4774H164.348V20.2463C164.348 19.4597 164.157 18.8716 163.783 18.4745C163.401 18.0697 162.874 17.8635 162.194 17.8635C161.69 17.8635 161.255 17.9704 160.873 18.1919C160.491 18.3981 160.201 18.7112 159.995 19.116C159.796 19.5131 159.697 19.9943 159.697 20.5671V24.485H158.689V17.031H159.651V19.0473L159.498 18.6959C159.727 18.1537 160.086 17.7336 160.59 17.4358C161.102 17.1226 161.698 16.9699 162.393 16.9699C163.118 16.9699 163.744 17.1532 164.249 17.5198C164.76 17.8787 165.089 18.421 165.241 19.1542L164.844 19.0014C165.058 18.3981 165.448 17.9093 165.998 17.5427C166.555 17.1608 167.219 16.9775 167.998 16.9775L167.991 16.947Z" fill="#64748B"/>
</g>
<defs>
<clipPath id="clip0_27702_61558">
<rect width="171" height="41" fill="white"/>
</clipPath>
</defs>
</svg>
